<svg width="287" height="274" viewBox="0 0 287 274" fill="none" xmlns="http://www.w3.org/2000/svg">
<path d="M56.3376 32.6752C58.1809 32.6752 59.6752 31.1809 59.6752 29.3376C59.6752 27.4943 58.1809 26 56.3376 26C54.4943 26 53 27.4943 53 29.3376C53 31.1809 54.4943 32.6752 56.3376 32.6752Z" fill="#FA9370"/>
<path d="M61.3446 36.0134C62.2662 36.0134 63.0134 35.2662 63.0134 34.3446C63.0134 33.4229 62.2662 32.6758 61.3446 32.6758C60.4229 32.6758 59.6758 33.4229 59.6758 34.3446C59.6758 35.2662 60.4229 36.0134 61.3446 36.0134Z" fill="#FFBF3F"/>
<path d="M231.56 247.115C233.404 247.115 234.898 245.62 234.898 243.777C234.898 241.934 233.404 240.439 231.56 240.439C229.717 240.439 228.223 241.934 228.223 243.777C228.223 245.62 229.717 247.115 231.56 247.115Z" fill="#D6BFDD"/>
<path d="M225.72 242.109C226.641 242.109 227.388 241.362 227.388 240.44C227.388 239.518 226.641 238.771 225.72 238.771C224.798 238.771 224.051 239.518 224.051 240.44C224.051 241.362 224.798 242.109 225.72 242.109Z" fill="#B6CFD0"/>
</svg>
