<svg xmlns="http://www.w3.org/2000/svg" width="132" height="74" viewBox="0 0 132 74" fill="none">
<g clip-path="url(#clip0_3518_168449)">
<path d="M43.6541 21.8669H43.6341L43.5343 26.1215C42.6911 32.3485 37.3721 37.1623 30.9555 37.1623C23.9152 37.1623 18.1871 31.4297 18.1871 24.3837V5.72266H11.8353V24.3887C11.8353 34.9401 20.4125 43.5241 30.9555 43.5241C35.4462 43.5241 39.8121 41.9062 43.2349 39.0299L43.0304 47.7587C43.0304 52.967 40.9098 58.0405 37.2175 61.6808C33.8096 65.0365 29.4137 66.8791 24.8133 66.8791C24.7185 66.8791 24.6287 66.8791 24.5339 66.8791C16.1114 66.7443 8.90644 60.772 7.0104 52.3578L6.99543 52.2979H0L0.0149688 52.3828C1.02786 58.0655 3.85696 63.3387 7.97838 67.2387C12.2445 71.2685 17.5235 73.5955 23.2366 73.9551C23.7655 73.99 24.2894 74.005 24.8133 74.005C31.7439 74.005 38.3551 71.0887 43.1551 65.8654L43.5892 65.3162C47.3663 60.5423 49.5767 54.6249 49.916 48.5077H50.0008V5.72266H43.6491V21.8669H43.6541Z" fill="#7652B8"/>
<path d="M64.7351 10.8411H58.3833V43.1845H64.7351V10.8411Z" fill="#7652B8"/>
<path d="M61.5618 0C59.3265 0 57.5103 1.81767 57.5103 4.05479C57.5103 6.29192 59.2915 8.10959 61.5618 8.10959C63.8321 8.10959 65.6134 6.32688 65.6134 4.05479C65.6134 1.78271 63.7972 0 61.5618 0Z" fill="#7652B8"/>
<path d="M73.1128 24.3836V43.1795H79.4646V24.3836C79.4646 17.4026 85.1627 11.6699 92.1731 11.605H92.8517V5.24316H92.1581C81.655 5.31807 73.1128 13.902 73.1128 24.3836Z" fill="#7652B8"/>
<path d="M112.95 5.31812C102.407 5.31812 93.8296 13.8721 93.8296 24.3836C93.8296 34.8951 102.407 43.5191 112.95 43.5191C123.493 43.5191 132 34.9351 132 24.3836C132 13.8322 123.453 5.31812 112.95 5.31812ZM125.648 24.3836C125.648 31.4296 119.95 37.1622 112.95 37.1622C105.949 37.1622 100.181 31.4296 100.181 24.3836C100.181 17.3377 105.909 11.675 112.95 11.675C119.99 11.675 125.648 17.3776 125.648 24.3836Z" fill="#7652B8"/>
<path d="M22.1488 54.545C22.1488 52.3079 20.3326 50.4902 18.0972 50.4902C15.8619 50.4902 14.0457 52.3079 14.0457 54.545C14.0457 56.7822 15.8269 58.5998 18.0972 58.5998C20.3675 58.5998 22.1488 56.8171 22.1488 54.545Z" fill="#00424A"/>
<path d="M35.6507 54.545C35.6507 52.3079 33.8345 50.4902 31.5992 50.4902C29.3638 50.4902 27.5476 52.3079 27.5476 54.545C27.5476 56.7822 29.3289 58.5998 31.5992 58.5998C33.8694 58.5998 35.6507 56.8171 35.6507 54.545Z" fill="#00424A"/>
</g>
<defs>
<clipPath id="clip0_3518_168449">
<rect width="132" height="74" fill="white"/>
</clipPath>
</defs>
</svg>