<svg width="132" height="74" viewBox="0 0 132 74" fill="none" xmlns="http://www.w3.org/2000/svg">
<g clip-path="url(#clip0_4193_608433)">
<path d="M43.6541 21.8669H43.6341L43.5343 26.1215C42.6911 32.3485 37.3721 37.1623 30.9555 37.1623C23.9152 37.1623 18.1871 31.4297 18.1871 24.3837V5.72266H11.8353V24.3887C11.8353 34.9401 20.4125 43.5241 30.9555 43.5241C35.4462 43.5241 39.8121 41.9062 43.2349 39.0299L43.0304 47.7587C43.0304 52.967 40.9098 58.0405 37.2175 61.6808C33.8096 65.0365 29.4137 66.8791 24.8133 66.8791C24.7185 66.8791 24.6287 66.8791 24.5339 66.8791C16.1114 66.7443 8.90644 60.772 7.0104 52.3578L6.99543 52.2979H0L0.0149688 52.3828C1.02786 58.0655 3.85696 63.3387 7.97838 67.2387C12.2445 71.2685 17.5235 73.5955 23.2366 73.9551C23.7655 73.99 24.2894 74.005 24.8133 74.005C31.7439 74.005 38.3551 71.0887 43.1551 65.8654L43.5892 65.3162C47.3663 60.5423 49.5767 54.6249 49.916 48.5077H50.0008V5.72266H43.6491V21.8669H43.6541Z" fill="#92DB8E"/>
<path d="M64.7346 10.8413H58.3828V43.1848H64.7346V10.8413Z" fill="#92DB8E"/>
<path d="M61.5633 0C59.3279 0 57.5117 1.81767 57.5117 4.05479C57.5117 6.29192 59.293 8.10959 61.5633 8.10959C63.8335 8.10959 65.6148 6.32688 65.6148 4.05479C65.6148 1.78271 63.7986 0 61.5633 0Z" fill="#92DB8E"/>
<path d="M73.1133 24.3836V43.1795H79.465V24.3836C79.465 17.4026 85.1632 11.6699 92.1736 11.605H92.8522V5.24316H92.1586C81.6555 5.31807 73.1133 13.902 73.1133 24.3836Z" fill="#92DB8E"/>
<path d="M112.948 5.31836C102.405 5.31836 93.8281 13.8724 93.8281 24.3839C93.8281 34.8954 102.405 43.5193 112.948 43.5193C123.491 43.5193 131.999 34.9353 131.999 24.3839C131.999 13.8324 123.451 5.31836 112.948 5.31836ZM125.647 24.3839C125.647 31.4298 119.949 37.1625 112.948 37.1625C105.948 37.1625 100.18 31.4298 100.18 24.3839C100.18 17.3379 105.908 11.6752 112.948 11.6752C119.989 11.6752 125.647 17.3779 125.647 24.3839Z" fill="#92DB8E"/>
<path d="M22.15 54.545C22.15 52.3079 20.3338 50.4902 18.0984 50.4902C15.8631 50.4902 14.0469 52.3079 14.0469 54.545C14.0469 56.7822 15.8282 58.5998 18.0984 58.5998C20.3687 58.5998 22.15 56.8171 22.15 54.545Z" fill="white"/>
<path d="M35.65 54.545C35.65 52.3079 33.8338 50.4902 31.5984 50.4902C29.3631 50.4902 27.5469 52.3079 27.5469 54.545C27.5469 56.7822 29.3282 58.5998 31.5984 58.5998C33.8687 58.5998 35.65 56.8171 35.65 54.545Z" fill="white"/>
</g>
<defs>
<clipPath id="clip0_4193_608433">
<rect width="132" height="74" fill="white"/>
</clipPath>
</defs>
</svg>
