<svg width="224" height="156" viewBox="0 0 224 156" fill="none" xmlns="http://www.w3.org/2000/svg">
<rect x="12.4026" y="12.4595" width="201.318" height="128.165" rx="4.5" fill="#F7F5FD" stroke="#7652B8"/>
<rect x="28.5723" y="35.8784" width="45.224" height="57.4065" rx="2" fill="#815EC9"/>
<rect x="85.6948" y="35.8784" width="114.25" height="21.5274" rx="2" fill="#B0A1E4"/>
<rect x="85.6948" y="62.189" width="114.25" height="7.17581" rx="2" fill="#B0A1E4"/>
<rect x="85.6948" y="74.1494" width="114.25" height="7.17581" rx="2" fill="#B0A1E4"/>
<rect x="85.6948" y="86.1099" width="114.25" height="7.17581" rx="2" fill="#B0A1E4"/>
<rect x="28.5723" y="102.853" width="171.375" height="7.17581" rx="2" fill="#B0A1E4"/>
<rect x="28.5723" y="114.814" width="171.375" height="7.17581" rx="2" fill="#B0A1E4"/>
<path fill-rule="evenodd" clip-rule="evenodd" d="M16.6628 0H9.37207C4.19602 0 0 4.21669 0 9.41825V17.2651H3.12402V9.41825C3.12402 5.95055 5.92137 3.13942 9.37207 3.13942H16.6628V0Z" fill="white"/>
<path fill-rule="evenodd" clip-rule="evenodd" d="M224 17.0063L224 9.67998C224 4.47842 219.804 0.261719 214.628 0.261718L206.82 0.261718L206.82 3.40114L214.628 3.40114C218.079 3.40114 220.876 6.21227 220.876 9.67998L220.876 17.0063L224 17.0063Z" fill="white"/>
<path fill-rule="evenodd" clip-rule="evenodd" d="M207.337 156L214.628 156C219.804 156 224 151.783 224 146.582L224 138.733L220.876 138.733L220.876 146.582C220.876 150.049 218.079 152.861 214.628 152.861L207.337 152.861L207.337 156Z" fill="white"/>
<path fill-rule="evenodd" clip-rule="evenodd" d="M2.18462e-06 138.994L1.22888e-06 146.319C5.50188e-07 151.52 4.19602 155.737 9.37207 155.737L17.1804 155.737L17.1804 152.597L9.37207 152.597C5.92137 152.597 3.12402 149.786 3.12402 146.319L3.12403 138.994L2.18462e-06 138.994Z" fill="white"/>
</svg>
