<svg width="149" height="261" viewBox="0 0 149 261" fill="none" xmlns="http://www.w3.org/2000/svg">
<g clip-path="url(#clip0_5315_87864)">
<path d="M129.52 0H18.4202C8.24699 0 0 8.24699 0 18.4202V242.88C0 253.053 8.24699 261.3 18.4202 261.3H129.52C139.694 261.3 147.941 253.053 147.941 242.88V18.4202C147.941 8.24699 139.694 0 129.52 0Z" fill="white"/>
<path d="M128.448 2.97534H19.4855C10.3668 2.97534 2.97461 10.3675 2.97461 19.4863V241.815C2.97461 250.934 10.3668 258.326 19.4855 258.326H128.448C137.566 258.326 144.959 250.934 144.959 241.815V19.4863C144.959 10.3675 137.566 2.97534 128.448 2.97534Z" fill="url(#paint0_radial_5315_87864)"/>
<path d="M84.4854 12.5245H63.4481C62.7974 12.5245 62.2754 12.0025 62.2754 11.3518C62.2754 10.7011 62.7974 10.1791 63.4481 10.1791H84.4854C85.1361 10.1791 85.6581 10.7011 85.6581 11.3518C85.6581 12.0025 85.1361 12.5245 84.4854 12.5245Z" fill="#312154"/>
<rect x="59" y="216" width="30" height="30" rx="15" fill="white"/>
<rect x="62.5713" y="219.571" width="22.8571" height="22.8571" rx="11.4286" fill="white"/>
<path fill-rule="evenodd" clip-rule="evenodd" d="M73.1073 228.143C73.0078 228.143 72.9148 228.191 72.8596 228.27L72.3528 228.857H71.3216C71.0848 228.857 70.8577 228.948 70.6902 229.108C70.5228 229.269 70.4287 229.63 70.4287 229.857V233C70.4287 233.227 70.5228 233.445 70.6902 233.606C70.8577 233.767 71.0848 233.857 71.3216 233.857H76.6787C76.9155 233.857 77.1426 233.767 77.3101 233.606C77.4775 233.445 77.5716 233.227 77.5716 233V229.857C77.5716 229.63 77.4775 229.269 77.3101 229.108C77.1426 228.948 76.9155 228.857 76.6787 228.857H75.6475L75.1406 228.27C75.0854 228.191 74.9925 228.143 74.893 228.143H73.1073ZM72.7597 229.444L73.2859 228.857H74.753L75.2406 229.444C75.2958 229.524 75.3887 229.572 75.4882 229.572H76.5597C76.6386 229.572 76.7143 229.602 76.7701 229.655C76.8259 229.709 76.8573 229.781 76.8573 229.857V232.857C76.8573 232.933 76.8259 233.006 76.7701 233.059C76.7143 233.113 76.6386 233.143 76.5597 233.143H71.4406C71.3617 233.143 71.286 233.113 71.2302 233.059C71.1744 233.006 71.143 232.933 71.143 232.857V229.857C71.143 229.781 71.1744 229.709 71.2302 229.655C71.286 229.602 71.3617 229.572 71.4406 229.572H72.512C72.6116 229.572 72.7045 229.524 72.7597 229.444ZM73.1072 231.286C73.1072 230.812 73.5069 230.429 74 230.429C74.4931 230.429 74.8929 230.812 74.8929 231.286C74.8929 231.759 74.4931 232.143 74 232.143C73.5069 232.143 73.1072 231.759 73.1072 231.286ZM74 229.857C73.1782 229.857 72.5119 230.497 72.5119 231.286C72.5119 232.075 73.1782 232.714 74 232.714C74.8219 232.714 75.4881 232.075 75.4881 231.286C75.4881 230.497 74.8219 229.857 74 229.857Z" fill="#334155"/>
</g>
<rect x="32" y="91" width="85" height="54" rx="5" fill="#F7F5FD"/>
<rect x="39" y="101" width="19" height="24" rx="2" fill="#815EC9"/>
<rect x="63" y="101" width="48" height="9" rx="2" fill="#B0A1E4"/>
<rect x="63" y="112" width="48" height="3" rx="1.5" fill="#B0A1E4"/>
<rect x="63" y="117" width="48" height="3" rx="1.5" fill="#B0A1E4"/>
<rect x="63" y="122" width="48" height="3" rx="1.5" fill="#B0A1E4"/>
<rect x="39" y="129" width="72" height="3" rx="1.5" fill="#B0A1E4"/>
<rect x="39" y="134" width="72" height="3" rx="1.5" fill="#B0A1E4"/>
<path fill-rule="evenodd" clip-rule="evenodd" d="M34 86H30.9375C28.7629 86 27 87.7629 27 89.9375V93.2188H28.3125V89.9375C28.3125 88.4878 29.4878 87.3125 30.9375 87.3125H34V86Z" fill="white"/>
<path fill-rule="evenodd" clip-rule="evenodd" d="M121.109 93.1094L121.109 90.0469C121.109 87.8723 119.346 86.1094 117.172 86.1094L113.891 86.1094L113.891 87.4219L117.172 87.4219C118.622 87.4219 119.797 88.5971 119.797 90.0469L119.797 93.1094L121.109 93.1094Z" fill="white"/>
<path fill-rule="evenodd" clip-rule="evenodd" d="M114.109 151.219L117.172 151.219C119.346 151.219 121.109 149.456 121.109 147.281L121.109 144L119.797 144L119.797 147.281C119.797 148.731 118.622 149.906 117.172 149.906L114.109 149.906L114.109 151.219Z" fill="white"/>
<path fill-rule="evenodd" clip-rule="evenodd" d="M27 144.109L27 147.172C27 149.346 28.7629 151.109 30.9375 151.109L34.2188 151.109L34.2188 149.797L30.9375 149.797C29.4878 149.797 28.3125 148.622 28.3125 147.172L28.3125 144.109L27 144.109Z" fill="white"/>
<defs>
<radialGradient id="paint0_radial_5315_87864" cx="0" cy="0" r="1" gradientUnits="userSpaceOnUse" gradientTransform="translate(121.583 45.2502) scale(209.594 209.594)">
<stop stop-color="#5F3F98"/>
<stop offset="1" stop-color="#352354"/>
</radialGradient>
<clipPath id="clip0_5315_87864">
<rect width="148.019" height="261" fill="white"/>
</clipPath>
</defs>
</svg>
