<svg width="179" height="172" viewBox="0 0 179 172" fill="none" xmlns="http://www.w3.org/2000/svg">
<rect x="31" y="24" width="114" height="114" rx="57" fill="white" fill-opacity="0.2"/>
<rect x="41" y="34" width="94" height="94" rx="47" fill="white" fill-opacity="0.2"/>
<circle cx="88" cy="81" r="31" fill="#FBE5E5"/>
<path fill-rule="evenodd" clip-rule="evenodd" d="M95.1862 75.329C95.6046 74.9106 95.6046 74.2322 95.1862 73.8138C94.7678 73.3954 94.0894 73.3954 93.671 73.8138L88 79.4848L82.329 73.8138C81.9106 73.3954 81.2322 73.3954 80.8138 73.8138C80.3954 74.2322 80.3954 74.9106 80.8138 75.329L86.4848 81L80.8138 86.671C80.3954 87.0894 80.3954 87.7678 80.8138 88.1862C81.2322 88.6046 81.9106 88.6046 82.329 88.1862L88 82.5152L93.671 88.1862C94.0894 88.6046 94.7678 88.6046 95.1862 88.1862C95.6046 87.7678 95.6046 87.0894 95.1862 86.671L89.5152 81L95.1862 75.329Z" fill="#E1251B"/>
<circle cx="26" cy="154" r="4" fill="#D6BFDD"/>
<circle cx="19" cy="150" r="2" fill="#B6CFD0"/>
<circle cx="129" cy="4" r="4" fill="#FA9370"/>
<circle cx="135" cy="10" r="2" fill="#FFBF3F"/>
<path fillRule="evenodd" clipRule="evenodd" d="M165 33.2286C162.364 33.2286 160.228 35.3654 160.228 38.0013C160.228 40.6372 162.364 42.774 165 42.774C167.636 42.774 169.773 40.6372 169.773 38.0013C169.773 35.3654 167.636 33.2286 165 33.2286ZM159.167 38.0013C159.167 34.7796 161.779 32.168 165 32.168C168.222 32.168 170.834 34.7796 170.834 38.0013C170.834 41.223 168.222 43.8346 165 43.8346C161.779 43.8346 159.167 41.223 159.167 38.0013ZM166.966 36.0354C167.173 36.2425 167.173 36.5783 166.966 36.7854L165.75 38.0013L166.966 39.2172C167.173 39.4243 167.173 39.7601 166.966 39.9672C166.759 40.1743 166.423 40.1743 166.216 39.9672L165 38.7513L163.784 39.9672C163.577 40.1743 163.241 40.1743 163.034 39.9672C162.827 39.7601 162.827 39.4243 163.034 39.2172L164.25 38.0013L163.034 36.7854C162.827 36.5783 162.827 36.2425 163.034 36.0354C163.241 35.8283 163.577 35.8283 163.784 36.0354L165 37.2513L166.216 36.0354C166.423 35.8283 166.759 35.8283 166.966 36.0354Z" fill="#B0A1E4"/>
<path fillRule="evenodd" clipRule="evenodd" d="M10.2504 35.3919C10.4793 35.2451 10.7376 35.168 11.0003 35.168C11.2631 35.168 11.5213 35.2451 11.7503 35.3919C11.9792 35.5387 12.1711 35.7502 12.3073 36.0061L12.3088 36.0088L16.6247 44.215L16.6288 44.223C16.7623 44.4863 16.8329 44.7847 16.8337 45.0887C16.8344 45.3927 16.7652 45.6917 16.6331 45.9558C16.5009 46.2199 16.3103 46.44 16.0802 46.5942C15.8502 46.7483 15.5887 46.8312 15.3218 46.8346L15.3162 46.8346L6.67884 46.8346C6.41194 46.8313 6.15045 46.7483 5.92041 46.5942C5.69036 46.44 5.49976 46.2199 5.36759 45.9558C5.23541 45.6917 5.16625 45.3927 5.167 45.0887C5.16775 44.7847 5.23837 44.4863 5.37185 44.223L5.37598 44.215L9.29116 36.7707L9.30008 36.7538L9.69333 36.0061C9.82959 35.7502 10.0214 35.5387 10.2504 35.3919ZM10.5653 36.6069L6.25269 44.8068C6.20929 44.8937 6.18634 44.9919 6.18609 45.092C6.18584 45.1933 6.2089 45.293 6.25296 45.381C6.29702 45.469 6.36055 45.5424 6.43723 45.5938C6.51324 45.6447 6.59955 45.6723 6.6877 45.6739H15.313C15.4011 45.6723 15.4874 45.6447 15.5634 45.5938C15.6401 45.5424 15.7036 45.469 15.7477 45.381C15.7918 45.293 15.8148 45.1933 15.8146 45.092C15.8143 44.992 15.7914 44.8937 15.748 44.8068L11.436 36.608L11.4354 36.6069C11.39 36.5221 11.3263 36.452 11.2503 36.4033C11.174 36.3544 11.0879 36.3287 11.0003 36.3287C10.9128 36.3287 10.8267 36.3544 10.7503 36.4033C10.6744 36.452 10.6107 36.5221 10.5653 36.6069ZM11.0003 38.668C11.3225 38.668 11.5837 38.9291 11.5837 39.2513V41.5846C11.5837 41.9068 11.3225 42.168 11.0003 42.168C10.6782 42.168 10.417 41.9068 10.417 41.5846V39.2513C10.417 38.9291 10.6782 38.668 11.0003 38.668ZM11.0003 43.3346C10.6782 43.3346 10.417 43.5958 10.417 43.918C10.417 44.2401 10.6782 44.5013 11.0003 44.5013H11.0062C11.3283 44.5013 11.5895 44.2401 11.5895 43.918C11.5895 43.5958 11.3283 43.3346 11.0062 43.3346H11.0003Z" fill="#B0A1E4"/>
<path fillRule="evenodd" clipRule="evenodd" d="M107.228 165.001C107.228 162.365 109.364 160.229 112 160.229C114.636 160.229 116.773 162.365 116.773 165.001C116.773 167.637 114.636 169.774 112 169.774C109.364 169.774 107.228 167.637 107.228 165.001ZM112 159.168C108.779 159.168 106.167 161.78 106.167 165.001C106.167 168.223 108.779 170.835 112 170.835C115.222 170.835 117.834 168.223 117.834 165.001C117.834 161.78 115.222 159.168 112 159.168ZM110.409 162.88C110.116 162.88 109.879 163.118 109.879 163.41C109.879 163.703 110.116 163.941 110.409 163.941H110.415C110.708 163.941 110.945 163.703 110.945 163.41C110.945 163.118 110.708 162.88 110.415 162.88H110.409ZM113.591 162.88C113.298 162.88 113.061 163.118 113.061 163.41C113.061 163.703 113.298 163.941 113.591 163.941H113.596C113.889 163.941 114.127 163.703 114.127 163.41C114.127 163.118 113.889 162.88 113.596 162.88H113.591ZM114.122 167.653C113.962 167.653 113.803 167.579 113.697 167.441L113.691 167.433C113.62 167.35 112.977 166.592 112 166.592C110.997 166.592 110.348 167.386 110.306 167.438L110.303 167.441C110.123 167.674 109.789 167.716 109.561 167.541C109.328 167.366 109.28 167.038 109.455 166.804C109.492 166.751 110.425 165.532 112 165.532C113.575 165.532 114.509 166.751 114.546 166.804C114.721 167.038 114.673 167.372 114.44 167.547C114.344 167.616 114.233 167.653 114.122 167.653Z" fill="#B0A1E4"/>
<circle cx="67" cy="22" r="2" fill="#947BD7"/>
<circle cx="77" cy="154" r="2" fill="#947BD7"/>
<circle cx="177" cy="101" r="2" fill="#947BD7"/>
<circle cx="2" cy="65" r="2" fill="#947BD7"/>
</svg>
