<svg width="172" height="194" viewBox="0 0 172 194" fill="none" xmlns="http://www.w3.org/2000/svg">
<path fill-rule="evenodd" clip-rule="evenodd" d="M45.1333 69.718C45.1333 46.6646 63.7688 27.9761 86.7568 27.9761C109.745 27.9761 128.38 46.6646 128.38 69.718V129.801C135.028 132.575 139.479 139.122 139.479 146.498V153.201C139.479 155.506 137.616 157.375 135.317 157.375C133.018 157.375 131.155 155.506 131.155 153.201V146.498C131.155 142.086 128.196 138.224 123.945 137.087L114.411 134.538L111.132 138.648C98.6346 154.314 74.8752 154.314 62.378 138.648L58.8588 134.236L46.3112 137.287C41.9549 138.346 38.8872 142.257 38.8872 146.753V153.201C38.8872 155.506 37.0237 157.375 34.7249 157.375C32.426 157.375 30.5625 155.506 30.5625 153.201V146.753C30.5625 138.404 36.2596 131.14 44.3499 129.174L45.1333 128.983V69.718ZM96.5841 117.896C97.3096 124.294 101.388 129.818 107.234 132.397L105.715 134.302C95.9946 146.487 77.5151 146.487 67.7951 134.302L66.1256 132.209C71.9681 129.695 76.0896 124.243 76.8972 117.884C79.9607 119.052 83.2838 119.692 86.7558 119.692C90.2164 119.692 93.5291 119.056 96.5841 117.896ZM104.458 113.294C104.674 113.799 104.793 114.354 104.793 114.938V115.843C104.793 120.255 107.751 124.117 112.003 125.254L121.443 127.778V69.718C121.443 50.5068 105.914 34.9331 86.7568 34.9331C67.6001 34.9331 52.0706 50.5068 52.0706 69.718V127.297L61.2934 125.054C65.6497 123.995 68.7174 120.084 68.7174 115.589V114.938C68.7174 114.354 68.8369 113.798 69.0527 113.294C62.9156 108.189 59.0068 100.484 59.0068 91.8636V69.7691C59.0068 66.7865 60.5935 64.0305 63.1692 62.5392L87.2883 48.5744C89.4235 47.3381 91.9954 47.1146 94.3109 47.9641C96.6263 48.8136 98.4472 50.6488 99.2828 52.975C100.695 56.9069 104.027 59.9301 108.116 60.9103C111.862 61.8084 114.505 65.1669 114.505 69.0299V91.8636C114.505 100.485 110.596 108.19 104.458 113.294ZM106.18 69.0299C101.789 67.9772 97.9378 65.5285 95.12 62.1777C93.546 60.306 92.2943 58.1529 91.4507 55.8043L67.3315 69.7691V91.8636C67.3315 102.622 76.0281 111.343 86.7558 111.343C97.4836 111.343 106.18 102.622 106.18 91.8636V69.0299Z" fill="#815EC9"/>
<path fill-rule="evenodd" clip-rule="evenodd" d="M12.399 0H6.97415C3.12244 0 0 3.13131 0 6.99399V12.8225H2.32472V6.99399C2.32472 4.41887 4.40634 2.33133 6.97415 2.33133H12.399V0Z" fill="white"/>
<path fill-rule="evenodd" clip-rule="evenodd" d="M172 12.6282L172 7.18833C172 3.32565 168.878 0.194336 165.026 0.194336L159.213 0.194335L159.213 2.52567L165.026 2.52567C167.594 2.52567 169.675 4.61321 169.675 7.18833L169.675 12.6282L172 12.6282Z" fill="white"/>
<path fill-rule="evenodd" clip-rule="evenodd" d="M159.603 194L165.026 194C168.878 194 172 190.869 172 187.006L172 177.625L169.675 177.625L169.675 187.006C169.675 189.581 167.594 191.669 165.026 191.669L159.603 191.669L159.603 194Z" fill="white"/>
<path fill-rule="evenodd" clip-rule="evenodd" d="M2.09632e-06 177.82L9.17155e-07 186.812C4.10626e-07 190.674 3.12243 193.806 6.97415 193.806L12.7866 193.806L12.7866 191.474L6.97415 191.474C4.40634 191.474 2.32472 189.387 2.32472 186.812L2.32472 177.82L2.09632e-06 177.82Z" fill="white"/>
</svg>
