<svg width="149" height="261" viewBox="0 0 149 261" fill="none" xmlns="http://www.w3.org/2000/svg">
<g clip-path="url(#clip0_5315_87915)">
<path d="M129.52 0H18.4202C8.24699 0 0 8.24699 0 18.4202V242.88C0 253.053 8.24699 261.3 18.4202 261.3H129.52C139.694 261.3 147.941 253.053 147.941 242.88V18.4202C147.941 8.24699 139.694 0 129.52 0Z" fill="white"/>
<path d="M128.448 2.97534H19.4855C10.3668 2.97534 2.97461 10.3675 2.97461 19.4863V241.815C2.97461 250.934 10.3668 258.326 19.4855 258.326H128.448C137.566 258.326 144.959 250.934 144.959 241.815V19.4863C144.959 10.3675 137.566 2.97534 128.448 2.97534Z" fill="url(#paint0_radial_5315_87915)"/>
<path d="M84.4854 12.5245H63.4481C62.7974 12.5245 62.2754 12.0025 62.2754 11.3518C62.2754 10.7011 62.7974 10.1791 63.4481 10.1791H84.4854C85.1361 10.1791 85.6581 10.7011 85.6581 11.3518C85.6581 12.0025 85.1361 12.5245 84.4854 12.5245Z" fill="#312154"/>
<rect x="59" y="216" width="30" height="30" rx="15" fill="white"/>
<rect x="62.5713" y="219.571" width="22.8571" height="22.8571" rx="11.4286" fill="white"/>
<path fill-rule="evenodd" clip-rule="evenodd" d="M73.1073 228.143C73.0078 228.143 72.9148 228.191 72.8596 228.27L72.3528 228.857H71.3216C71.0848 228.857 70.8577 228.948 70.6902 229.108C70.5228 229.269 70.4287 229.63 70.4287 229.857V233C70.4287 233.227 70.5228 233.445 70.6902 233.606C70.8577 233.767 71.0848 233.857 71.3216 233.857H76.6787C76.9155 233.857 77.1426 233.767 77.3101 233.606C77.4775 233.445 77.5716 233.227 77.5716 233V229.857C77.5716 229.63 77.4775 229.269 77.3101 229.108C77.1426 228.948 76.9155 228.857 76.6787 228.857H75.6475L75.1406 228.27C75.0854 228.191 74.9925 228.143 74.893 228.143H73.1073ZM72.7597 229.444L73.2859 228.857H74.753L75.2406 229.444C75.2958 229.524 75.3887 229.572 75.4882 229.572H76.5597C76.6386 229.572 76.7143 229.602 76.7701 229.655C76.8259 229.709 76.8573 229.781 76.8573 229.857V232.857C76.8573 232.933 76.8259 233.006 76.7701 233.059C76.7143 233.113 76.6386 233.143 76.5597 233.143H71.4406C71.3617 233.143 71.286 233.113 71.2302 233.059C71.1744 233.006 71.143 232.933 71.143 232.857V229.857C71.143 229.781 71.1744 229.709 71.2302 229.655C71.286 229.602 71.3617 229.572 71.4406 229.572H72.512C72.6116 229.572 72.7045 229.524 72.7597 229.444ZM73.1072 231.286C73.1072 230.812 73.5069 230.429 74 230.429C74.4931 230.429 74.8929 230.812 74.8929 231.286C74.8929 231.759 74.4931 232.143 74 232.143C73.5069 232.143 73.1072 231.759 73.1072 231.286ZM74 229.857C73.1782 229.857 72.5119 230.497 72.5119 231.286C72.5119 232.075 73.1782 232.714 74 232.714C74.8219 232.714 75.4881 232.075 75.4881 231.286C75.4881 230.497 74.8219 229.857 74 229.857Z" fill="#334155"/>
</g>
<path fill-rule="evenodd" clip-rule="evenodd" d="M51.4799 101.25C51.4799 88.2713 62.0012 77.75 74.9799 77.75C87.9586 77.75 98.4799 88.2713 98.4799 101.25V135.076C102.233 136.638 104.746 140.323 104.746 144.476V148.25C104.746 149.548 103.694 150.6 102.396 150.6C101.098 150.6 100.046 149.548 100.046 148.25V144.476C100.046 141.992 98.376 139.818 95.9757 139.178L90.5936 137.743L88.7427 140.056C81.687 148.876 68.2728 148.876 61.2171 140.056L59.2303 137.573L52.1463 139.29C49.6868 139.887 47.9549 142.089 47.9549 144.619V148.25C47.9549 149.548 46.9028 150.6 45.6049 150.6C44.307 150.6 43.2549 149.548 43.2549 148.25V144.619C43.2549 139.919 46.4714 135.83 51.039 134.723L51.4799 134.616V101.25ZM80.5282 128.373C80.9378 131.976 83.2409 135.086 86.5417 136.538L85.6843 137.61C80.1965 144.47 69.7633 144.47 64.2755 137.61L63.3331 136.432C66.6318 135.016 68.9588 131.947 69.4148 128.367C71.1442 129.024 73.0202 129.384 74.9803 129.384C76.9337 129.384 78.8036 129.027 80.5282 128.373ZM84.9739 125.783C85.0955 126.067 85.1628 126.38 85.1628 126.708V127.218C85.1628 129.702 86.833 131.876 89.2333 132.516L94.5632 133.937V101.25C94.5632 90.4344 85.7955 81.6667 74.9799 81.6667C64.1643 81.6667 55.3965 90.4344 55.3965 101.25V133.666L60.6051 132.404C63.0646 131.807 64.7965 129.605 64.7965 127.075V126.708C64.7965 126.38 64.864 126.067 64.9858 125.783C61.5206 122.909 59.3136 118.571 59.3136 113.718V101.279C59.3136 99.5996 60.2094 98.048 61.6636 97.2084L75.2809 89.3464C76.4864 88.6504 77.9384 88.5246 79.2457 89.0028C80.553 89.4811 81.581 90.5143 82.0528 91.8239C82.8501 94.0375 84.7312 95.7395 87.0396 96.2913C89.1549 96.7969 90.6469 98.6877 90.6469 100.863V113.718C90.6469 118.571 88.4396 122.91 84.9739 125.783ZM85.9469 100.863C83.4676 100.27 81.2935 98.8913 79.7025 97.0049C78.8139 95.9511 78.1072 94.7389 77.6309 93.4167L64.0136 101.279V113.718C64.0136 119.774 68.9235 124.684 74.9803 124.684C81.037 124.684 85.9469 119.774 85.9469 113.718V100.863Z" fill="white"/>
<path fill-rule="evenodd" clip-rule="evenodd" d="M33 62H29.9375C27.7629 62 26 63.7629 26 65.9375V69.2188H27.3125V65.9375C27.3125 64.4878 28.4878 63.3125 29.9375 63.3125H33V62Z" fill="white"/>
<path fill-rule="evenodd" clip-rule="evenodd" d="M123.109 69.1094L123.109 66.0469C123.109 63.8723 121.346 62.1094 119.172 62.1094L115.891 62.1094L115.891 63.4219L119.172 63.4219C120.622 63.4219 121.797 64.5971 121.797 66.0469L121.797 69.1094L123.109 69.1094Z" fill="white"/>
<path fill-rule="evenodd" clip-rule="evenodd" d="M116.109 171.219L119.172 171.219C121.346 171.219 123.109 169.456 123.109 167.281L123.109 162L121.797 162L121.797 167.281C121.797 168.731 120.622 169.906 119.172 169.906L116.109 169.906L116.109 171.219Z" fill="white"/>
<path fill-rule="evenodd" clip-rule="evenodd" d="M26 162.109L26 167.172C26 169.346 27.7629 171.109 29.9375 171.109L33.2188 171.109L33.2188 169.797L29.9375 169.797C28.4878 169.797 27.3125 168.622 27.3125 167.172L27.3125 162.109L26 162.109Z" fill="white"/>
<defs>
<radialGradient id="paint0_radial_5315_87915" cx="0" cy="0" r="1" gradientUnits="userSpaceOnUse" gradientTransform="translate(121.583 45.2502) scale(209.594 209.594)">
<stop stop-color="#5F3F98"/>
<stop offset="1" stop-color="#352354"/>
</radialGradient>
<clipPath id="clip0_5315_87915">
<rect width="148.019" height="261" fill="white"/>
</clipPath>
</defs>
</svg>
